<mxfile host="app.diagrams.net" modified="2023-08-25T17:16:23.364Z" agent="Mozilla/5.0 (X11; Linux x86_64; rv:109.0) Gecko/20100101 Firefox/111.0" etag="RriYqirEtzxkDoWL3wy6" version="21.6.9" type="github">
  <diagram id="R2lEEEUBdFMjLlhIrx00" name="Page-1">
    <mxGraphModel dx="1434" dy="673" grid="1" gridSize="10" guides="1" tooltips="1" connect="1" arrows="1" fold="1" page="1" pageScale="1" pageWidth="850" pageHeight="1100" math="0" shadow="0" extFonts="Permanent Marker^https://fonts.googleapis.com/css?family=Permanent+Marker">
      <root>
        <mxCell id="0" />
        <mxCell id="1" parent="0" />
        <mxCell id="2_PCf-EwlmcPeiiPyUpq-1" value="floricultura" style="swimlane;childLayout=stackLayout;horizontal=1;startSize=50;horizontalStack=0;rounded=1;fontSize=14;fontStyle=0;strokeWidth=2;resizeParent=0;resizeLast=1;shadow=0;dashed=0;align=center;arcSize=4;whiteSpace=wrap;html=1;" vertex="1" parent="1">
          <mxGeometry x="110" y="230" width="160" height="120" as="geometry" />
        </mxCell>
        <mxCell id="2_PCf-EwlmcPeiiPyUpq-2" value="clientes" style="swimlane;childLayout=stackLayout;horizontal=1;startSize=50;horizontalStack=0;rounded=1;fontSize=14;fontStyle=0;strokeWidth=2;resizeParent=0;resizeLast=1;shadow=0;dashed=0;align=center;arcSize=4;whiteSpace=wrap;html=1;" vertex="1" parent="1">
          <mxGeometry x="520" y="230" width="160" height="120" as="geometry" />
        </mxCell>
        <mxCell id="2_PCf-EwlmcPeiiPyUpq-3" value="&lt;div&gt;RG&lt;/div&gt;&lt;div&gt;nome&lt;/div&gt;&lt;div&gt;telefone&lt;/div&gt;&lt;div&gt;endereço&lt;br&gt;&lt;/div&gt;" style="align=left;strokeColor=none;fillColor=none;spacingLeft=4;fontSize=12;verticalAlign=top;resizable=0;rotatable=0;part=1;html=1;" vertex="1" parent="2_PCf-EwlmcPeiiPyUpq-2">
          <mxGeometry y="50" width="160" height="70" as="geometry" />
        </mxCell>
        <mxCell id="2_PCf-EwlmcPeiiPyUpq-4" value="produtos" style="swimlane;childLayout=stackLayout;horizontal=1;startSize=50;horizontalStack=0;rounded=1;fontSize=14;fontStyle=0;strokeWidth=2;resizeParent=0;resizeLast=1;shadow=0;dashed=0;align=center;arcSize=4;whiteSpace=wrap;html=1;" vertex="1" parent="1">
          <mxGeometry x="940" y="230" width="160" height="120" as="geometry" />
        </mxCell>
        <mxCell id="2_PCf-EwlmcPeiiPyUpq-5" value="&lt;div&gt;nome &lt;br&gt;&lt;/div&gt;&lt;div&gt;tipo &lt;br&gt;&lt;/div&gt;&lt;div&gt;preço&lt;br&gt;&lt;/div&gt;" style="align=left;strokeColor=none;fillColor=none;spacingLeft=4;fontSize=12;verticalAlign=top;resizable=0;rotatable=0;part=1;html=1;" vertex="1" parent="2_PCf-EwlmcPeiiPyUpq-4">
          <mxGeometry y="50" width="160" height="70" as="geometry" />
        </mxCell>
        <mxCell id="2_PCf-EwlmcPeiiPyUpq-6" value="Registro" style="swimlane;childLayout=stackLayout;horizontal=1;startSize=50;horizontalStack=0;rounded=1;fontSize=14;fontStyle=0;strokeWidth=2;resizeParent=0;resizeLast=1;shadow=0;dashed=0;align=center;arcSize=4;whiteSpace=wrap;html=1;" vertex="1" parent="1">
          <mxGeometry x="710" y="590" width="160" height="120" as="geometry" />
        </mxCell>
        <mxCell id="2_PCf-EwlmcPeiiPyUpq-7" value="&lt;div&gt;data&lt;/div&gt;&lt;div&gt;valor&lt;/div&gt;&lt;div&gt;produtos&lt;br&gt;&lt;/div&gt;" style="align=left;strokeColor=none;fillColor=none;spacingLeft=4;fontSize=12;verticalAlign=top;resizable=0;rotatable=0;part=1;html=1;" vertex="1" parent="2_PCf-EwlmcPeiiPyUpq-6">
          <mxGeometry y="50" width="160" height="70" as="geometry" />
        </mxCell>
        <mxCell id="2_PCf-EwlmcPeiiPyUpq-8" style="edgeStyle=orthogonalEdgeStyle;rounded=0;orthogonalLoop=1;jettySize=auto;html=1;exitX=0;exitY=0.5;exitDx=0;exitDy=0;entryX=1;entryY=0;entryDx=0;entryDy=0;" edge="1" parent="1" source="2_PCf-EwlmcPeiiPyUpq-11" target="2_PCf-EwlmcPeiiPyUpq-3">
          <mxGeometry relative="1" as="geometry" />
        </mxCell>
        <mxCell id="2_PCf-EwlmcPeiiPyUpq-9" style="edgeStyle=orthogonalEdgeStyle;rounded=0;orthogonalLoop=1;jettySize=auto;html=1;" edge="1" parent="1" source="2_PCf-EwlmcPeiiPyUpq-11">
          <mxGeometry relative="1" as="geometry">
            <mxPoint x="940" y="300" as="targetPoint" />
          </mxGeometry>
        </mxCell>
        <mxCell id="2_PCf-EwlmcPeiiPyUpq-10" style="edgeStyle=orthogonalEdgeStyle;rounded=0;orthogonalLoop=1;jettySize=auto;html=1;exitX=0.5;exitY=1;exitDx=0;exitDy=0;entryX=0.438;entryY=0;entryDx=0;entryDy=0;entryPerimeter=0;" edge="1" parent="1" source="2_PCf-EwlmcPeiiPyUpq-11" target="2_PCf-EwlmcPeiiPyUpq-6">
          <mxGeometry relative="1" as="geometry" />
        </mxCell>
        <mxCell id="2_PCf-EwlmcPeiiPyUpq-11" value="comprar" style="shape=rhombus;perimeter=rhombusPerimeter;whiteSpace=wrap;html=1;align=center;" vertex="1" parent="1">
          <mxGeometry x="730" y="250" width="120" height="60" as="geometry" />
        </mxCell>
        <mxCell id="2_PCf-EwlmcPeiiPyUpq-12" value="" style="edgeStyle=orthogonalEdgeStyle;rounded=0;orthogonalLoop=1;jettySize=auto;html=1;" edge="1" parent="1" source="2_PCf-EwlmcPeiiPyUpq-13" target="2_PCf-EwlmcPeiiPyUpq-3">
          <mxGeometry relative="1" as="geometry" />
        </mxCell>
        <mxCell id="2_PCf-EwlmcPeiiPyUpq-13" value="tem" style="shape=rhombus;perimeter=rhombusPerimeter;whiteSpace=wrap;html=1;align=center;" vertex="1" parent="1">
          <mxGeometry x="335" y="260" width="120" height="60" as="geometry" />
        </mxCell>
        <mxCell id="2_PCf-EwlmcPeiiPyUpq-14" value="" style="endArrow=none;html=1;rounded=0;" edge="1" parent="1">
          <mxGeometry relative="1" as="geometry">
            <mxPoint x="270" y="289.5" as="sourcePoint" />
            <mxPoint x="340" y="289.5" as="targetPoint" />
          </mxGeometry>
        </mxCell>
        <mxCell id="2_PCf-EwlmcPeiiPyUpq-15" value="1" style="resizable=0;html=1;whiteSpace=wrap;align=right;verticalAlign=bottom;" connectable="0" vertex="1" parent="2_PCf-EwlmcPeiiPyUpq-14">
          <mxGeometry x="1" relative="1" as="geometry">
            <mxPoint x="-50" y="1" as="offset" />
          </mxGeometry>
        </mxCell>
        <mxCell id="2_PCf-EwlmcPeiiPyUpq-16" value="N" style="resizable=0;html=1;whiteSpace=wrap;align=right;verticalAlign=bottom;" connectable="0" vertex="1" parent="1">
          <mxGeometry x="510" y="310" as="geometry" />
        </mxCell>
        <mxCell id="2_PCf-EwlmcPeiiPyUpq-17" value="1" style="resizable=0;html=1;whiteSpace=wrap;align=right;verticalAlign=bottom;" connectable="0" vertex="1" parent="1">
          <mxGeometry x="700" y="260" as="geometry" />
        </mxCell>
        <mxCell id="2_PCf-EwlmcPeiiPyUpq-18" value="n" style="resizable=0;html=1;whiteSpace=wrap;align=right;verticalAlign=bottom;" connectable="0" vertex="1" parent="1">
          <mxGeometry x="930" y="330" as="geometry" />
        </mxCell>
        <mxCell id="2_PCf-EwlmcPeiiPyUpq-19" value="n" style="resizable=0;html=1;whiteSpace=wrap;align=right;verticalAlign=bottom;" connectable="0" vertex="1" parent="1">
          <mxGeometry x="910" y="250" as="geometry">
            <mxPoint x="24" y="46" as="offset" />
          </mxGeometry>
        </mxCell>
        <mxCell id="2_PCf-EwlmcPeiiPyUpq-20" value="n" style="resizable=0;html=1;whiteSpace=wrap;align=right;verticalAlign=bottom;" connectable="0" vertex="1" parent="1">
          <mxGeometry x="310" y="320" as="geometry">
            <mxPoint x="383" y="-25" as="offset" />
          </mxGeometry>
        </mxCell>
      </root>
    </mxGraphModel>
  </diagram>
</mxfile>
